<svg width="18" height="18" viewBox="0 0 18 18" fill="none" xmlns="http://www.w3.org/2000/svg">
<path fill-rule="evenodd" clip-rule="evenodd" d="M8.20769 0.9375H9.79231C11.1706 0.937488 12.2624 0.937479 13.1168 1.05235C13.9961 1.17057 14.7078 1.41966 15.2691 1.98093C15.4887 2.2006 15.4887 2.55676 15.2691 2.77643C15.0494 2.9961 14.6932 2.9961 14.4736 2.77643C14.1562 2.45902 13.7214 2.26877 12.9669 2.16732C12.1961 2.0637 11.1801 2.0625 9.75 2.0625H8.25C6.81989 2.0625 5.80388 2.0637 5.03314 2.16732C4.27857 2.26877 3.84384 2.45902 3.52643 2.77643C3.20902 3.09384 3.01877 3.52857 2.91732 4.28314C2.8137 5.05388 2.8125 6.06988 2.8125 7.5V10.5C2.8125 11.9301 2.8137 12.9461 2.91732 13.7169C3.01877 14.4714 3.20902 14.9062 3.52643 15.2236C3.84384 15.541 4.27857 15.7312 5.03314 15.8327C5.80388 15.9363 6.81988 15.9375 8.25 15.9375H9.75C11.1801 15.9375 12.1961 15.9363 12.9669 15.8327C13.7214 15.7312 14.1562 15.541 14.4736 15.2236C14.9955 14.7016 15.1536 13.8906 15.181 11.9919C15.1855 11.6812 15.441 11.4331 15.7516 11.4376C16.0622 11.4421 16.3104 11.6975 16.3059 12.0081C16.2796 13.8287 16.1617 15.1264 15.2691 16.0191C14.7078 16.5803 13.9961 16.8294 13.1168 16.9476C12.2624 17.0625 11.1706 17.0625 9.79231 17.0625H8.20769C6.82937 17.0625 5.73764 17.0625 4.88323 16.9476C4.00392 16.8294 3.2922 16.5803 2.73093 16.0191C2.16966 15.4578 1.92057 14.7461 1.80235 13.8668C1.68748 13.0124 1.68749 11.9206 1.6875 10.5423V7.45769C1.68749 6.07937 1.68748 4.98764 1.80235 4.13323C1.92057 3.25392 2.16966 2.54221 2.73093 1.98093C3.29221 1.41966 4.00392 1.17057 4.88323 1.05235C5.73764 0.937479 6.82937 0.937488 8.20769 0.9375ZM13.5849 5.28417C14.3804 4.48861 15.6703 4.48861 16.4658 5.28417C17.2614 6.07973 17.2614 7.36959 16.4658 8.16514L12.8993 11.7316C12.7053 11.9257 12.574 12.057 12.427 12.1717C12.254 12.3066 12.0669 12.4223 11.8689 12.5167C11.7005 12.5969 11.5244 12.6556 11.264 12.7423L9.70132 13.2632C9.3563 13.3782 8.97591 13.2884 8.71874 13.0313C8.46157 12.7741 8.37178 12.3937 8.48678 12.0487L8.9972 10.5174C9.00074 10.5068 9.00423 10.4963 9.00768 10.486C9.09443 10.2256 9.15312 10.0495 9.23335 9.88114C9.32772 9.68311 9.44339 9.49596 9.5783 9.32299C9.69298 9.17597 9.82427 9.0447 10.0183 8.85069C10.0261 8.84296 10.0339 8.83514 10.0418 8.82722L13.5849 5.28417ZM15.6703 6.07966C15.3141 5.72345 14.7366 5.72345 14.3804 6.07966L14.244 6.216C14.2514 6.24111 14.2599 6.26782 14.2696 6.29589C14.3402 6.49924 14.4741 6.7682 14.7279 7.02207C14.9818 7.27594 15.2508 7.40981 15.4541 7.48036C15.4822 7.4901 15.5089 7.49859 15.534 7.50599L15.6703 7.36965C16.0266 7.01343 16.0266 6.43588 15.6703 6.07966ZM14.6748 8.36516C14.4364 8.23993 14.179 8.06411 13.9324 7.81756C13.6859 7.57102 13.5101 7.31359 13.3848 7.07518L10.8373 9.62271C10.6115 9.84852 10.5323 9.92912 10.4654 10.0149C10.3807 10.1234 10.3081 10.2409 10.2489 10.3651C10.2021 10.4633 10.1655 10.5702 10.0645 10.8732L9.76425 11.7739L9.97615 11.9858L10.8768 11.6855C11.1798 11.5845 11.2867 11.5479 11.3849 11.5011C11.5091 11.4419 11.6266 11.3693 11.7351 11.2846C11.8209 11.2177 11.9015 11.1385 12.1273 10.9127L14.6748 8.36516ZM5.4375 6.75C5.4375 6.43934 5.68934 6.1875 6 6.1875H10.875C11.1857 6.1875 11.4375 6.43934 11.4375 6.75C11.4375 7.06066 11.1857 7.3125 10.875 7.3125H6C5.68934 7.3125 5.4375 7.06066 5.4375 6.75ZM5.4375 9.75C5.4375 9.43934 5.68934 9.1875 6 9.1875H7.875C8.18566 9.1875 8.4375 9.43934 8.4375 9.75C8.4375 10.0607 8.18566 10.3125 7.875 10.3125H6C5.68934 10.3125 5.4375 10.0607 5.4375 9.75ZM5.4375 12.75C5.4375 12.4393 5.68934 12.1875 6 12.1875H7.125C7.43566 12.1875 7.6875 12.4393 7.6875 12.75C7.6875 13.0607 7.43566 13.3125 7.125 13.3125H6C5.68934 13.3125 5.4375 13.0607 5.4375 12.75Z" fill="white"/>
</svg>
