<svg width="36" height="36" viewBox="0 0 36 36" fill="none" xmlns="http://www.w3.org/2000/svg">
<g clip-path="url(#clip0_65_1196)">
<path d="M-4.6015e-06 18C-5.03604e-06 8.05887 8.05887 -2.59335e-06 18 -3.02789e-06C27.9411 -3.46243e-06 36 8.05887 36 18C36 27.9411 27.9411 36 18 36C8.05887 36 -4.16696e-06 27.9411 -4.6015e-06 18Z" fill="#2196F3"/>
</g>
<path d="M20.3942 21.0952L20.0252 21.4835C20.0252 21.4835 19.1483 22.4068 16.7547 19.8868C14.3612 17.3668 15.2381 16.4436 15.2381 16.4436L15.4704 16.199C16.0428 15.5965 16.0967 14.6291 15.5974 13.9229L14.576 12.4783C13.958 11.6042 12.7638 11.4888 12.0554 12.2345L10.784 13.573C10.4328 13.9428 10.1974 14.4222 10.226 14.9539C10.299 16.3143 10.8803 19.2413 14.1241 22.6564C17.5639 26.2779 20.7915 26.4219 22.1114 26.2916C22.5289 26.2504 22.892 26.0253 23.1845 25.7173L24.3352 24.5058C25.1119 23.6881 24.8929 22.2863 23.8991 21.7142L22.3516 20.8235C21.6991 20.4479 20.9041 20.5582 20.3942 21.0952Z" fill="white"/>
<path d="M18.5341 10.8342C18.5877 10.503 18.9007 10.2783 19.2319 10.3319C19.2524 10.3359 19.3185 10.3482 19.353 10.3559C19.4221 10.3713 19.5185 10.395 19.6387 10.43C19.8791 10.5 20.215 10.6154 20.618 10.8002C21.425 11.1701 22.4989 11.8173 23.6133 12.9317C24.7277 14.0461 25.3749 15.12 25.7448 15.927C25.9297 16.3301 26.045 16.6659 26.115 16.9063C26.15 17.0265 26.1737 17.1229 26.1891 17.192C26.1968 17.2266 26.2025 17.2543 26.2064 17.2748L26.2111 17.3001C26.2646 17.6313 26.042 17.9574 25.7108 18.011C25.3806 18.0645 25.0695 17.8408 25.0145 17.5112C25.0128 17.5023 25.0081 17.4786 25.0032 17.4562C24.9932 17.4113 24.9759 17.3402 24.9485 17.2461C24.8937 17.0579 24.7985 16.7782 24.6404 16.4334C24.3247 15.7446 23.7569 14.7935 22.7542 13.7909C21.7515 12.7882 20.8004 12.2204 20.1117 11.9046C19.7669 11.7465 19.4872 11.6513 19.2989 11.5965C19.2049 11.5691 19.0866 11.542 19.0418 11.532C18.7121 11.477 18.4806 11.1645 18.5341 10.8342Z" fill="white"/>
<path fill-rule="evenodd" clip-rule="evenodd" d="M18.7169 13.6283C18.8091 13.3057 19.1453 13.1189 19.4679 13.211L19.3011 13.7952C19.4679 13.211 19.4679 13.211 19.4679 13.211L19.4691 13.2114L19.4703 13.2117L19.473 13.2125L19.4793 13.2144L19.4954 13.2194C19.5075 13.2233 19.5228 13.2284 19.541 13.2348C19.5773 13.2477 19.6255 13.2661 19.6844 13.2914C19.8024 13.3419 19.9636 13.42 20.1618 13.5373C20.5582 13.7719 21.0994 14.1617 21.7353 14.7975C22.3711 15.4333 22.7608 15.9745 22.9955 16.371C23.1127 16.5691 23.1908 16.7303 23.2414 16.8483C23.2666 16.9073 23.285 16.9554 23.2979 16.9917C23.3044 17.0099 23.3094 17.0252 23.3134 17.0374L23.3183 17.0534L23.3202 17.0597L23.321 17.0624L23.3213 17.0636C23.3213 17.0636 23.3217 17.0648 22.7376 17.2317L23.3217 17.0648C23.4139 17.3874 23.227 17.7236 22.9045 17.8158C22.5846 17.9072 22.2513 17.7244 22.1558 17.4068L22.1528 17.398C22.1485 17.3859 22.1396 17.3619 22.1246 17.3269C22.0947 17.257 22.0403 17.1426 21.9499 16.9898C21.7693 16.6847 21.4431 16.2236 20.8761 15.6566C20.3092 15.0897 19.848 14.7635 19.5429 14.5829C19.3902 14.4924 19.2758 14.4381 19.2058 14.4081C19.1708 14.3931 19.1468 14.3842 19.1347 14.3799L19.1259 14.3769C18.8084 14.2814 18.6255 13.9481 18.7169 13.6283Z" fill="white"/>
<defs>
<clipPath id="clip0_65_1196">
<rect width="36" height="36" fill="white" transform="matrix(-4.37114e-08 -1 -1 4.37114e-08 36 36)"/>
</clipPath>
</defs>
</svg>
