<svg width="36" height="36" viewBox="0 0 36 36" fill="none" xmlns="http://www.w3.org/2000/svg">
<path d="M32.2412 13.0098C31.5822 5.72677 25.4511 0 18 0C10.5489 0 4.41785 5.72677 3.75877 13.0098C1.62277 13.4123 0 15.2843 0 17.5348V22.1594C0 24.7015 2.06769 26.7692 4.60985 26.7692H5.07692C6.85846 26.7692 8.30769 25.32 8.30769 23.5385V16.1538C8.30769 14.8911 7.57292 13.8074 6.51323 13.2757C7.03754 7.39569 11.9852 2.76923 18 2.76923C24.0148 2.76923 28.9625 7.39569 29.4868 13.2757C28.4289 13.8074 27.6923 14.8911 27.6923 16.1538V23.5385C27.6923 24.1385 27.8677 24.6942 28.1538 25.1778C28.1428 25.248 28.1114 25.3126 28.1114 25.3846C28.1114 29.712 24.5926 33.2308 20.2652 33.2308H17.9982C17.2338 33.2308 16.6135 33.8511 16.6135 34.6154C16.6135 35.3797 17.2338 36 17.9982 36H20.2652C25.6542 36 30.1071 31.9625 30.7828 26.7545C30.8308 26.7563 30.8751 26.7692 30.9231 26.7692H31.3902C33.9323 26.7692 36 24.7015 36 22.1594V17.5348C36 15.2843 34.3772 13.4123 32.2412 13.0098Z" fill="#022169"/>
<path d="M25.3842 7.38464H10.615C7.8111 7.38464 5.53809 9.65766 5.53809 12.4616V25.3846C5.53809 28.1885 7.8111 30.4616 10.615 30.4616H25.3842C28.1881 30.4616 30.4612 28.1885 30.4612 25.3846V12.4616C30.4612 9.65766 28.1881 7.38464 25.3842 7.38464Z" fill="#F45B69"/>
<path d="M14.3075 19.3846C13.5432 19.3846 12.9229 18.7643 12.9229 18V16.1538C12.9229 15.3895 13.5432 14.7692 14.3075 14.7692C15.0718 14.7692 15.6921 15.3895 15.6921 16.1538V18C15.6921 18.7643 15.0718 19.3846 14.3075 19.3846ZM21.6921 14.7692C20.9278 14.7692 20.3075 15.3895 20.3075 16.1538V18C20.3075 18.7643 20.9278 19.3846 21.6921 19.3846C22.4564 19.3846 23.0767 18.7643 23.0767 18V16.1538C23.0767 15.3895 22.4564 14.7692 21.6921 14.7692ZM19.8459 22.1538H16.1536C15.3893 22.1538 14.769 22.7741 14.769 23.5385C14.769 24.3028 15.3893 24.9231 16.1536 24.9231H19.8459C20.6102 24.9231 21.2305 24.3028 21.2305 23.5385C21.2305 22.7741 20.6102 22.1538 19.8459 22.1538Z" fill="white"/>
</svg>
