<svg width="100" height="100" viewBox="0 0 100 100" fill="none" xmlns="http://www.w3.org/2000/svg">
<circle cx="50" cy="50" r="49.5" stroke="#9CA6B4"/>
<path d="M72.9174 55.0286C72.7559 54.877 72.6114 54.7429 72.4815 54.6224C71.9722 54.15 71.7166 53.9128 71.5906 53.6945C71.4645 53.4763 71.3871 53.1364 71.2325 52.4592C71.193 52.2864 71.1492 52.0941 71.0986 51.8784C70.812 50.6551 69.7765 49.7862 68.522 49.7164C68.3008 49.7041 68.1038 49.6942 67.9268 49.6855C67.2331 49.651 66.8849 49.6336 66.648 49.5474C66.4112 49.4612 66.1333 49.2506 65.5796 48.8312C65.4384 48.7242 65.2812 48.6051 65.1039 48.4724C64.0981 47.7194 62.7463 47.7194 61.7405 48.4724C61.5632 48.6051 61.406 48.7241 61.2648 48.8311C60.7111 49.2506 60.4332 49.4611 60.1963 49.5474C60.0971 49.5835 59.978 49.6074 59.8226 49.6257C57.2603 47.3255 54.1926 45.7396 50.8939 44.9758C54.4619 43.2627 56.9312 39.6136 56.9312 35.3983C56.9313 29.544 52.1685 24.7812 46.3142 24.7812C40.4599 24.7812 35.6971 29.544 35.6971 35.3983C35.6971 39.6138 38.1667 43.2631 41.7349 44.9761C38.4121 45.7461 35.3187 47.3497 32.7473 49.6751C29.0506 53.0182 26.7239 57.5769 26.1959 62.5114C26.1722 62.7318 26.2434 62.9519 26.3916 63.1167C26.5397 63.2815 26.7509 63.3758 26.9726 63.3758L46.3129 63.3757C46.3132 63.3757 46.3137 63.3758 46.3141 63.3758C46.3145 63.3758 46.315 63.3757 46.3154 63.3757H54.1849C54.4616 64.0156 54.9745 64.544 55.6563 64.8361C55.8599 64.9233 56.0418 65 56.2049 65.0688C56.288 65.1037 56.3655 65.1364 56.4382 65.1673L54.2613 69.8431C54.1095 70.1691 54.1512 70.5489 54.37 70.8341C54.5886 71.1192 54.9443 71.2578 55.2986 71.1959L57.4956 70.8121L58.6161 72.7403C58.7892 73.0384 59.1046 73.2188 59.4468 73.2188C59.4615 73.2188 59.4762 73.2186 59.491 73.2179C59.85 73.2016 60.1673 72.9891 60.3193 72.663L62.4616 68.0615C62.9387 67.9159 63.2097 67.8426 63.4222 67.8426C63.6347 67.8426 63.9057 67.9159 64.383 68.0615L66.5252 72.6629C66.6768 72.9889 66.9941 73.2015 67.3532 73.2179C67.368 73.2186 67.3829 73.2188 67.3976 73.2188C67.7398 73.2188 68.0551 73.0384 68.2284 72.7403L69.3489 70.8121L71.5459 71.196C71.9004 71.2578 72.2562 71.119 72.4749 70.8336C72.6934 70.5482 72.7348 70.1685 72.583 69.8429L70.4061 65.1673C70.4789 65.1364 70.5563 65.1038 70.6394 65.0688C70.8026 65 70.9844 64.9233 71.188 64.8361C72.343 64.3415 73.0189 63.1709 72.8698 61.9232C72.8435 61.7032 72.8189 61.5075 72.7969 61.3317C72.7105 60.6425 72.667 60.2966 72.7109 60.0483C72.7547 59.8001 72.9137 59.4898 73.2307 58.8718C73.3115 58.7142 73.4015 58.5387 73.5014 58.341C74.0683 57.2196 73.8337 55.8886 72.9174 55.0286ZM53.343 58.341C53.4429 58.5387 53.533 58.7142 53.6137 58.8719C53.9307 59.49 54.0898 59.8002 54.1336 60.0484C54.1773 60.2967 54.1339 60.6426 54.0475 61.3318C54.0293 61.4775 54.0092 61.6378 53.9879 61.8133H48.0743L50.045 59.6346C50.212 59.4499 50.281 59.1966 50.2307 58.9527L49.2266 54.0848L49.4219 54.3163C49.5712 54.4933 49.7901 54.5938 50.019 54.5938C50.0435 54.5938 50.0682 54.5927 50.0929 54.5903C50.348 54.5661 50.5751 54.4184 50.7004 54.1949L54.2885 47.8006C55.4665 48.3576 56.5883 49.0397 57.6355 49.84C56.7019 50.1294 55.9781 50.8875 55.7459 51.8787C55.6953 52.0943 55.6514 52.2867 55.6121 52.4594C55.4576 53.1366 55.38 53.4766 55.254 53.6948C55.1279 53.9131 54.8723 54.1503 54.363 54.6227C54.2332 54.7431 54.0885 54.8772 53.927 55.0289C53.0109 55.8885 52.7762 57.2196 53.343 58.341ZM42.7389 52.447L39.7851 47.1831C40.3327 46.9798 40.8923 46.8019 41.4624 46.6497L45.192 49.5384L42.7389 52.447ZM45.5135 51.5806L46.3141 50.6313L47.1146 51.5805L48.6203 58.8803L46.314 61.43L44.0078 58.8803L45.5135 51.5806ZM47.4365 49.5384L51.162 46.6529C51.7299 46.8053 52.2897 46.9844 52.8396 47.1895L49.8894 52.447L47.4365 49.5384ZM37.2596 35.3983C37.2596 30.4057 41.3215 26.3438 46.3142 26.3438C51.3069 26.3438 55.3688 30.4057 55.3688 35.3983C55.3688 40.3897 51.309 44.4508 46.3181 44.4529C46.3168 44.4529 46.3155 44.4529 46.3141 44.4529C46.3129 44.4529 46.3116 44.4529 46.3102 44.4529C41.3194 44.4507 37.2596 40.3897 37.2596 35.3983ZM46.3142 46.0154H46.3181C47.2746 46.0156 48.2218 46.0896 49.1537 46.232L46.3141 48.4313L43.4723 46.2303C44.3986 46.0896 45.3462 46.0156 46.3102 46.0154C46.3116 46.0153 46.313 46.0154 46.3142 46.0154ZM38.3355 47.7927L41.928 54.1947C42.0534 54.4182 42.2803 54.5659 42.5355 54.5901C42.5602 54.5925 42.5848 54.5937 42.6094 54.5937C42.8383 54.5937 43.0574 54.493 43.2065 54.3161L43.4017 54.0847L42.3976 58.9526C42.3473 59.1966 42.4163 59.4498 42.5834 59.6346L44.5541 61.8133L27.8621 61.8134C28.8277 55.5309 32.8628 50.37 38.3355 47.7927ZM59.3887 70.9599L58.5731 69.5562C58.4087 69.2733 58.0858 69.123 57.7631 69.1791L56.164 69.4585L57.7334 66.0877C57.8387 66.2411 57.9624 66.4325 58.1186 66.6744C58.2147 66.8231 58.3217 66.9889 58.4429 67.1743C58.9326 67.923 59.7178 68.3709 60.5634 68.4367L59.3887 70.9599ZM69.0814 69.1791C68.7591 69.1228 68.4358 69.2731 68.2714 69.5562L67.4558 70.9598L66.2817 68.4378C67.1271 68.3718 67.9122 67.9229 68.4016 67.1742C68.5228 66.9889 68.6298 66.8231 68.7259 66.6744C68.8822 66.4324 69.0058 66.2411 69.1112 66.0877L70.6805 69.4585L69.0814 69.1791ZM72.107 57.6361C72.0086 57.8308 71.92 58.0036 71.8404 58.1588C71.0621 59.6766 71.0344 59.8339 71.2466 61.5262C71.2683 61.6992 71.2925 61.892 71.3184 62.1086C71.3856 62.6702 71.0929 63.1771 70.573 63.3997C70.3724 63.4855 70.1934 63.561 70.0327 63.6288C68.461 64.2912 68.3385 64.3938 67.4133 65.8268C67.3187 65.9732 67.2134 66.1364 67.094 66.319C66.7844 66.7924 66.2343 66.9926 65.6931 66.8289C65.4843 66.7658 65.2987 66.7085 65.132 66.657C64.3171 66.4056 63.8697 66.2799 63.4223 66.2799C62.975 66.2799 62.5275 66.4057 61.7127 66.657C61.546 66.7085 61.3604 66.7657 61.1515 66.8289C60.6102 66.9922 60.0602 66.7924 59.7506 66.319C59.6312 66.1364 59.5259 65.9732 59.4313 65.8268C58.506 64.3939 58.3837 64.2912 56.812 63.6288C56.6512 63.5611 56.4722 63.4856 56.2716 63.3997C55.7517 63.1771 55.4591 62.6702 55.5262 62.1086C55.5521 61.892 55.5763 61.6992 55.598 61.5262C55.8102 59.8339 55.7826 59.6766 55.0042 58.1588C54.9246 58.0036 54.836 57.8308 54.7376 57.6361C54.4824 57.1313 54.584 56.555 54.9963 56.168C55.1554 56.0187 55.2978 55.8865 55.4257 55.7679C56.6761 54.608 56.756 54.4696 57.1354 52.8066C57.1742 52.6366 57.2174 52.4473 57.2671 52.2349C57.3962 51.6841 57.8445 51.3079 58.4092 51.2766C58.6271 51.2644 58.8212 51.2548 58.9954 51.2461C60.6988 51.1612 60.8489 51.1065 62.2086 50.0765C62.3475 49.9712 62.5023 49.8539 62.6769 49.7231C63.1298 49.3842 63.7149 49.3843 64.1677 49.7231C64.3424 49.8538 64.4972 49.9712 64.6363 50.0766C65.9958 51.1064 66.1459 51.1611 67.8493 51.246C68.0235 51.2547 68.2175 51.2644 68.4354 51.2765C69.0002 51.3078 69.4485 51.684 69.5775 52.2348C69.6273 52.4472 69.6705 52.6366 69.7093 52.8066C70.0887 54.4694 70.1686 54.6078 71.419 55.7678C71.5469 55.8864 71.6893 56.0185 71.8483 56.1678C72.2606 56.555 72.3623 57.1313 72.107 57.6361ZM63.4222 52.3278C60.1969 52.3278 57.5729 54.9519 57.5729 58.1771C57.5729 61.4022 60.1969 64.0263 63.4222 64.0263C66.6475 64.0263 69.2715 61.4023 69.2715 58.1771C69.2715 54.952 66.6476 52.3278 63.4222 52.3278ZM63.4222 62.4639C61.0585 62.4639 59.1354 60.5408 59.1354 58.1771C59.1354 55.8135 61.0585 53.8904 63.4222 53.8904C65.786 53.8904 67.709 55.8135 67.709 58.1771C67.709 60.5408 65.786 62.4639 63.4222 62.4639Z" fill="#013170"/>
</svg>
