<svg width="100" height="100" viewBox="0 0 100 100" fill="none" xmlns="http://www.w3.org/2000/svg">
<circle cx="50" cy="50" r="49.5" stroke="#9CA6B4"/>
<g clip-path="url(#clip0_179_172)">
<path d="M49.9708 39.1787C49.268 37.4333 47.9282 36.0682 46.198 35.3339C42.626 33.8191 38.4863 35.4993 36.9683 39.0791C36.2329 40.8128 36.2148 42.7287 36.9176 44.4735C37.6204 46.2195 38.9602 47.5846 40.6898 48.3183C41.5817 48.6965 42.5084 48.8754 43.4217 48.8754C46.1648 48.8754 48.7807 47.2588 49.9201 44.5731C50.6556 42.839 50.6736 40.9237 49.9708 39.1787ZM49.0312 39.5574C49.1381 39.8224 49.2186 40.0936 49.286 40.3659L47.6852 39.6868C47.6633 38.6734 47.4793 37.8057 47.284 37.1659C48.0493 37.7968 48.6503 38.6109 49.0312 39.5574ZM43.6677 42.4716L45.8368 43.3916C45.5099 44.0217 45.107 44.5597 44.6682 45.0093L42.9081 44.2626L43.6677 42.4716ZM41.045 40.2586C41.3961 39.5614 41.8243 38.979 42.2745 38.4917L43.9535 39.2041L43.1309 41.1431L41.045 40.2586ZM44.0633 41.5392L44.8859 39.6002L46.6578 40.3519C46.6201 41.0119 46.4935 41.7237 46.2363 42.4608L44.0633 41.5392ZM46.0782 36.789C46.2594 37.2325 46.557 38.1175 46.6459 39.2463L45.2814 38.6673L46.0782 36.789ZM44.3491 38.2717L43.0769 37.7321C43.8726 37.076 44.6423 36.6855 45.1066 36.4868L44.3491 38.2717ZM43.4651 35.7903C43.6823 35.7903 43.9012 35.8049 44.1196 35.8291C43.5265 36.1329 42.7776 36.6028 42.0354 37.2904L40.4334 36.6107C41.3489 36.0801 42.3949 35.7903 43.4651 35.7903ZM37.7257 39.9513L39.7244 40.7987C39.4926 41.4633 39.3648 42.1143 39.3153 42.7383L37.423 41.936C37.4123 41.2669 37.5119 40.5984 37.7257 39.9513ZM37.8568 44.096C37.7246 43.768 37.6273 43.4315 37.5547 43.0928L39.2956 43.8309C39.3564 44.9963 39.6451 46.0029 39.9242 46.7293C39.0069 46.0716 38.2895 45.1696 37.8568 44.096ZM38.1191 39.0178C38.4691 38.3527 38.9288 37.7754 39.4673 37.3011L41.287 38.0731C40.8576 38.5801 40.4571 39.1743 40.1166 39.8652L38.1191 39.0178ZM40.6528 41.1931L42.7353 42.076L41.9756 43.867L40.3051 43.1586C40.3236 42.5306 40.4261 41.8678 40.6528 41.1931ZM40.893 46.4187C40.682 45.8746 40.4564 45.1341 40.3556 44.28L41.58 44.7994L40.893 46.4187ZM42.5125 45.1949L43.8263 45.7525C43.0858 46.3163 42.3408 46.6838 41.785 46.9094L42.5125 45.1949ZM42.3774 47.7653C43.0938 47.4598 44.0137 46.9675 44.8904 46.2039L46.624 46.9393C45.3771 47.7163 43.8657 48.0303 42.3774 47.7653ZM47.5474 46.2303L45.6608 45.4301C46.0743 44.9603 46.4536 44.4162 46.7704 43.7871L48.7663 44.6333C48.4449 45.245 48.0308 45.7801 47.5474 46.2303ZM49.1628 43.7016L47.1693 42.8559C47.4292 42.1311 47.5778 41.4301 47.6436 40.7689L49.4582 41.5392C49.492 42.2667 49.3953 42.9971 49.1628 43.7016Z" fill="#013170"/>
<path d="M70.9933 67.4663L66.0513 35.3376C66.004 35.0298 65.7126 34.8193 65.4098 34.8673L56.7996 36.1912C56.4705 35.3055 55.7974 34.5488 54.864 34.1453L38.433 27.047C38.1488 26.9244 37.8169 27.055 37.6936 27.3401L26.0461 54.3006C25.9869 54.4373 25.9847 54.5926 26.0394 54.7311C26.0951 54.8696 26.2026 54.9809 26.3398 55.04L42.7708 62.1383C42.9143 62.2002 43.0606 62.2492 43.2079 62.2914L44.6282 71.5216C44.6709 71.8001 44.9106 71.9988 45.1835 71.9988C45.2122 71.9988 45.2409 71.9965 45.2695 71.9921L70.5228 68.1079C70.6702 68.0854 70.8031 68.005 70.8909 67.8845C70.9792 67.7641 71.0164 67.6138 70.9933 67.4663ZM43.2164 61.1058L27.3025 54.2303L38.5034 28.3035L54.4178 35.1784C55.6636 35.7169 56.2391 37.1685 55.7013 38.4144L46.4525 59.8216C46.1919 60.4254 45.7114 60.8913 45.1004 61.1338C44.4891 61.377 43.8207 61.3663 43.2164 61.1058ZM59.1521 53.8308L61.2375 61.9881L60.8509 62.3746L56.91 56.4298C56.8165 56.2891 56.6652 56.198 56.497 56.1811C56.3292 56.1636 56.1627 56.2239 56.0428 56.3432L55.1505 57.2356C54.4078 57.9783 53.8175 58.5686 52.9335 59.4486C52.7236 59.658 52.6403 59.9134 52.6842 60.2083C52.7399 60.5774 52.7928 60.9471 52.8463 61.3167L52.965 62.1337C52.8671 62.2293 52.7704 62.3261 52.6736 62.4229L52.2184 61.6031C51.9455 61.1102 51.672 60.6168 51.3958 60.1277C51.2861 59.9319 51.1144 59.8076 50.9895 59.7378C50.2062 59.2988 49.4213 58.8622 48.6363 58.4261L48.351 58.2674L48.5164 57.8853C48.8129 57.9472 49.1871 58.0451 49.5545 58.1414C50.088 58.2815 50.5921 58.4137 50.9679 58.47C51.0146 58.4767 51.0602 58.4801 51.1046 58.4801C51.3258 58.4801 51.5244 58.3962 51.6853 58.2343L54.7008 55.2154C54.7283 55.1878 54.7542 55.1581 54.7874 55.1192L54.8245 55.0759C54.9309 54.9538 54.9798 54.7917 54.9585 54.6308C54.9365 54.4699 54.847 54.3258 54.712 54.2363L51.1209 51.855L51.6712 50.5816C54.3102 51.2861 56.5789 51.8224 57.3526 52.0053C57.5608 52.0542 57.8664 52.0542 58.142 51.7773L61.3241 48.5915C61.5249 48.39 61.7264 48.2916 61.9767 48.2719C62.2435 48.2477 62.5046 48.3597 62.6835 48.5718C62.8635 48.7845 62.9283 49.058 62.8619 49.3219C62.8152 49.5069 62.7172 49.669 62.5535 49.8328L61.642 50.7443C60.8987 51.487 60.2353 52.151 59.3902 52.9916C59.1561 53.2237 59.0751 53.5022 59.1521 53.8308ZM48.9693 56.8327L50.6669 52.9046L53.5242 54.7991L50.9937 57.3323C50.6814 57.2738 50.2543 57.1613 49.8391 57.0521C49.5314 56.9712 49.2377 56.8952 48.9693 56.8327ZM45.6545 70.7946L44.3659 62.4186C44.7548 62.3994 45.143 62.328 45.5155 62.1805C46.4062 61.8272 47.1056 61.1486 47.4854 60.2685L47.9013 59.3058L48.0887 59.4098C48.868 59.8431 49.6473 60.2764 50.4362 60.7192C50.7046 61.1941 50.9686 61.6712 51.233 62.1484L52.0472 63.6148C52.13 63.7634 52.2959 63.8483 52.4636 63.8776C52.4901 63.8821 52.5171 63.8843 52.5446 63.8843C52.6904 63.8843 52.844 63.8224 52.952 63.7279C52.9903 63.6942 53.0218 63.666 53.0534 63.635L53.3026 63.3852C53.4838 63.2035 53.6644 63.0218 53.8484 62.844C54.0532 62.6454 54.1393 62.391 54.0971 62.1069L53.9586 61.157C53.9114 60.8245 53.8635 60.4919 53.8134 60.1599C54.6508 59.3271 55.2263 58.751 55.9455 58.0318L56.3512 57.6261L60.2923 63.5708C60.3857 63.7115 60.5371 63.8026 60.7053 63.8195C60.8702 63.8358 61.0401 63.7768 61.1594 63.6574L62.2595 62.5574C62.4002 62.4167 62.4559 62.2124 62.4069 62.0199L60.2783 53.6951C61.0795 52.8978 61.7216 52.2557 62.4372 51.54L63.3487 50.6285C63.6582 50.319 63.8557 49.9814 63.9525 49.5965C64.1062 48.9855 63.9525 48.3305 63.5424 47.8455C63.1322 47.3605 62.5132 47.0994 61.8875 47.15C61.3721 47.1906 60.914 47.4077 60.5264 47.7966L57.4542 50.8733C56.5842 50.6674 54.5176 50.1745 52.1222 49.5375L56.7346 38.8611C56.9551 38.3507 57.0429 37.8173 57.0215 37.2962L65.0246 36.065L69.7955 67.0814L45.6545 70.7946Z" fill="#013170"/>
<path d="M45.6263 53.2349L33.6411 48.0571C33.3845 47.9469 33.0864 48.0651 32.9755 48.321C32.864 48.5776 32.9828 48.8758 33.2393 48.9867L45.2245 54.1645C45.2898 54.1926 45.3578 54.2061 45.4248 54.2061C45.6207 54.2061 45.8075 54.0914 45.8902 53.9006C46.0011 53.644 45.8829 53.3458 45.6263 53.2349Z" fill="#013170"/>
<path d="M43.9102 56.467L31.9251 51.2892C31.6685 51.1777 31.3703 51.2965 31.2594 51.5531C31.1485 51.8097 31.2668 52.1078 31.5233 52.2187L43.5084 57.3965C43.5737 57.4246 43.6418 57.4382 43.7088 57.4382C43.9046 57.4382 44.0915 57.3234 44.1741 57.1326C44.285 56.8761 44.1669 56.5779 43.9102 56.467Z" fill="#013170"/>
</g>
<defs>
<clipPath id="clip0_179_172">
<rect width="45" height="45" fill="white" transform="translate(26 27)"/>
</clipPath>
</defs>
</svg>
