<svg width="100" height="100" viewBox="0 0 100 100" fill="none" xmlns="http://www.w3.org/2000/svg">
<circle cx="50" cy="50" r="49.5" stroke="#9CA6B4"/>
<g clip-path="url(#clip0_179_146)">
<path d="M70.0764 28.7668H38.2778C37.7675 28.7668 37.3541 29.1803 37.3541 29.6905V48.053H28.9237C28.4134 48.053 28 48.4665 28 48.9767V64.6323C28 67.7205 30.5123 70.2332 33.6006 70.2332C33.6802 70.2332 65.3992 70.2332 65.3992 70.2332C68.4874 70.2332 71.0001 67.7206 71.0001 64.6323V29.6905C71 29.1803 70.5866 28.7668 70.0764 28.7668ZM29.8473 64.6323V49.9003H37.3541V64.6323C37.3541 66.7019 35.6704 68.3859 33.6005 68.3859C31.5311 68.3859 29.8473 66.7019 29.8473 64.6323ZM69.1527 64.6323C69.1527 66.7019 67.4689 68.3859 65.3991 68.3859H37.7541C38.653 67.3921 39.2014 66.0748 39.2014 64.6323V30.6141H69.1527V64.6323Z" fill="#013170"/>
<path d="M52.8797 39.4354H64.7181C65.2283 39.4354 65.6417 39.022 65.6417 38.5118C65.6417 38.0016 65.2283 37.5881 64.7181 37.5881H52.8797C52.3695 37.5881 51.9561 38.0016 51.9561 38.5118C51.9561 39.022 52.3696 39.4354 52.8797 39.4354Z" fill="#013170"/>
<path d="M52.8797 49.5824H64.7181C65.2283 49.5824 65.6417 49.169 65.6417 48.6588C65.6417 48.1485 65.2283 47.7351 64.7181 47.7351H52.8797C52.3695 47.7351 51.9561 48.1485 51.9561 48.6588C51.9561 49.169 52.3696 49.5824 52.8797 49.5824Z" fill="#013170"/>
<path d="M52.8797 59.7296H64.7181C65.2283 59.7296 65.6417 59.3162 65.6417 58.806C65.6417 58.2958 65.2283 57.8823 64.7181 57.8823H52.8797C52.3695 57.8823 51.9561 58.2958 51.9561 58.806C51.9561 59.3161 52.3696 59.7296 52.8797 59.7296Z" fill="#013170"/>
<path d="M44.3566 40.4747C44.5312 40.6594 44.7742 40.7641 45.0282 40.7641C45.0306 40.7641 45.0332 40.7641 45.0359 40.7641C45.2928 40.7619 45.5372 40.653 45.7104 40.4632L50.784 34.9064C51.1279 34.5297 51.1012 33.9455 50.7246 33.6015C50.3479 33.2578 49.7637 33.2843 49.4197 33.6609L45.0167 38.4831L43.6461 37.0317C43.2956 36.6608 42.7109 36.6443 42.3402 36.9944C41.9693 37.3446 41.9528 37.9291 42.3029 38.3001L44.3566 40.4747Z" fill="#013170"/>
<path d="M49.4197 44.2489L45.0167 49.0709L43.6459 47.6198C43.2956 47.2486 42.7109 47.2321 42.3402 47.5825C41.9693 47.9327 41.9528 48.5172 42.3029 48.8881L44.3566 51.0625C44.5312 51.2473 44.7742 51.3519 45.0282 51.3519C45.0306 51.3519 45.0332 51.3519 45.0359 51.3519C45.2928 51.3497 45.5372 51.2409 45.7104 51.0511L50.784 45.4945C51.1277 45.1178 51.1012 44.5336 50.7246 44.1896C50.348 43.8456 49.7637 43.8721 49.4197 44.2489Z" fill="#013170"/>
<path d="M49.4197 54.8368L45.0167 59.6587L43.6459 58.2076C43.2956 57.8364 42.7109 57.8198 42.3402 58.1703C41.9693 58.5206 41.9528 59.105 42.3029 59.476L44.3566 61.6504C44.5312 61.8351 44.7742 61.9398 45.0282 61.9398C45.0306 61.9398 45.0332 61.9398 45.0359 61.9398C45.2928 61.9376 45.5372 61.8287 45.7104 61.6389L50.784 56.0824C51.1277 55.7056 51.1012 55.1214 50.7246 54.7774C50.3479 54.4335 49.7637 54.4601 49.4197 54.8368Z" fill="#013170"/>
</g>
<defs>
<clipPath id="clip0_179_146">
<rect width="43" height="43" fill="white" transform="translate(28 28)"/>
</clipPath>
</defs>
</svg>
