<svg width="60" height="60" viewBox="0 0 60 60" fill="none" xmlns="http://www.w3.org/2000/svg">
<path d="M30 60C46.5685 60 60 46.5685 60 30C60 13.4315 46.5685 0 30 0C13.4315 0 0 13.4315 0 30C0 46.5685 13.4315 60 30 60Z" fill="#E4022B"/>
<path d="M36.6875 30.7188L31.6875 35.7188C31.5 35.9062 31.25 36 31 36C30.7188 36 30.4688 35.9062 30.2812 35.7188C29.875 35.3438 29.875 34.6875 30.2812 34.3125L33.5625 31H24C23.4375 31 23 30.5625 23 30C23 29.4688 23.4375 29 24 29H33.5625L30.2812 25.7188C29.875 25.3438 29.875 24.6875 30.2812 24.3125C30.6562 23.9062 31.3125 23.9062 31.6875 24.3125L36.6875 29.3125C37.0938 29.6875 37.0938 30.3438 36.6875 30.7188Z" fill="white"/>
</svg>
