<svg width="100" height="100" viewBox="0 0 100 100" fill="none" xmlns="http://www.w3.org/2000/svg">
<circle cx="50" cy="50" r="49.5" stroke="#9CA6B4"/>
<g clip-path="url(#clip0_179_159)">
<path d="M69.2564 45.556C68.5799 44.8812 67.6633 44.5022 66.7078 44.5022C65.7523 44.5022 64.8357 44.8812 64.1592 45.556L56.2736 53.4416C56.0068 52.8281 55.5668 52.3058 55.0075 51.9387C54.4481 51.5716 53.7939 51.3757 53.1249 51.375H40.3958C39.7636 51.3733 39.1374 51.497 38.5534 51.7389C37.9694 51.9808 37.4391 52.3362 36.9934 52.7844L33.1874 56.5904L32.2984 55.7014C32.1695 55.5725 31.9947 55.5001 31.8124 55.5001C31.6301 55.5001 31.4552 55.5725 31.3263 55.7014L27.8888 59.1389C27.7599 59.2679 27.6875 59.4427 27.6875 59.625C27.6875 59.8073 27.7599 59.9821 27.8888 60.1111L39.5763 71.7986C39.7052 71.9274 39.8801 71.9998 40.0624 71.9998C40.2447 71.9998 40.4195 71.9274 40.5484 71.7986L43.9859 68.3611C44.1148 68.2321 44.1872 68.0573 44.1872 67.875C44.1872 67.6927 44.1148 67.5179 43.9859 67.3889L43.097 66.5L45.1595 64.4375H52.9097C53.7224 64.4397 54.5276 64.2807 55.2785 63.9696C56.0294 63.6585 56.7111 63.2016 57.2842 62.6252L69.2564 50.6531C69.9312 49.9766 70.3102 49.0601 70.3102 48.1046C70.3102 47.149 69.9312 46.2325 69.2564 45.556ZM40.0624 70.3404L29.347 59.625L31.8124 57.1596L42.5277 67.875L40.0624 70.3404ZM68.2842 49.681L56.3121 61.6531C55.8663 62.1013 55.3361 62.4567 54.752 62.6986C54.168 62.9405 53.5418 63.0642 52.9097 63.0625H44.8749C44.6925 63.0625 44.5177 63.135 44.3888 63.2639L42.1249 65.5279L34.1595 57.5625L37.9655 53.7565C38.2839 53.4364 38.6627 53.1826 39.0798 53.0098C39.497 52.8371 39.9443 52.7488 40.3958 52.75H53.1249C53.6719 52.75 54.1965 52.9673 54.5833 53.3541C54.9701 53.7409 55.1874 54.2655 55.1874 54.8125C55.1874 55.3595 54.9701 55.8841 54.5833 56.2709C54.1965 56.6577 53.6719 56.875 53.1249 56.875H44.8749C44.6925 56.875 44.5176 56.9474 44.3887 57.0764C44.2598 57.2053 44.1874 57.3802 44.1874 57.5625C44.1874 57.7448 44.2598 57.9197 44.3887 58.0486C44.5176 58.1776 44.6925 58.25 44.8749 58.25H53.1249C53.9791 58.2473 54.8016 57.9259 55.4314 57.3488C56.0612 56.7716 56.453 55.9802 56.53 55.1294L65.1314 46.5281C65.5511 46.1178 66.1156 45.8896 66.7026 45.8929C67.2895 45.8962 67.8514 46.1309 68.2665 46.5459C68.6815 46.9609 68.9161 47.5229 68.9194 48.1098C68.9228 48.6967 68.6945 49.2613 68.2842 49.681Z" fill="#013170"/>
<path d="M35.9376 49.3125C36.4235 49.3134 36.8941 49.1423 37.266 48.8295C37.6379 48.5167 37.8871 48.0824 37.9694 47.6035C38.0517 47.1246 37.9619 46.632 37.7159 46.2129C37.4698 45.7939 37.0834 45.4754 36.6251 45.314V36.6515L40.0626 38.2884V44.0394C40.0629 44.1689 40.0999 44.2958 40.1693 44.4053C40.2386 44.5147 40.3374 44.6024 40.4544 44.6581L50.0794 49.2437C50.1718 49.2877 50.2728 49.3105 50.3751 49.3105C50.4774 49.3105 50.5783 49.2877 50.6707 49.2437L60.2957 44.6581C60.4127 44.6024 60.5115 44.5147 60.5809 44.4053C60.6502 44.2958 60.6872 44.1689 60.6876 44.0394V38.2884L65.1082 36.1812C65.2255 36.1254 65.3247 36.0374 65.3941 35.9276C65.4635 35.8177 65.5003 35.6904 65.5003 35.5604C65.5003 35.4305 65.4635 35.3032 65.3941 35.1933C65.3247 35.0834 65.2255 34.9954 65.1082 34.9396L50.6707 28.0646C50.5783 28.0206 50.4774 27.9978 50.3751 27.9978C50.2728 27.9978 50.1718 28.0206 50.0794 28.0646L35.6419 34.9396C35.5266 34.9985 35.4293 35.0875 35.3603 35.1971C35.2913 35.3068 35.2532 35.433 35.2501 35.5625V45.314C34.7917 45.4754 34.4053 45.7939 34.1593 46.2129C33.9132 46.632 33.8234 47.1246 33.9057 47.6035C33.9881 48.0824 34.2373 48.5167 34.6092 48.8295C34.981 49.1423 35.4516 49.3134 35.9376 49.3125ZM59.3126 43.6062L50.3751 47.8632L41.4376 43.6062V38.9429L50.0794 43.0562C50.1718 43.1002 50.2728 43.123 50.3751 43.123C50.4774 43.123 50.5783 43.1002 50.6707 43.0562L59.3126 38.9429V43.6062ZM50.3751 29.4485L63.2134 35.5625C62.7171 35.799 59.6797 37.2427 50.3751 41.6764C29.9694 31.9538 51.275 42.1047 38.9804 36.25H50.3751C50.5574 36.25 50.7323 36.1775 50.8612 36.0486C50.9901 35.9197 51.0626 35.7448 51.0626 35.5625C51.0626 35.3801 50.9901 35.2053 50.8612 35.0763C50.7323 34.9474 50.5574 34.875 50.3751 34.875H38.9804L50.3751 29.4485ZM35.9376 46.5625C36.0735 46.5625 36.2065 46.6028 36.3195 46.6783C36.4326 46.7539 36.5207 46.8613 36.5727 46.9869C36.6248 47.1125 36.6384 47.2507 36.6119 47.3841C36.5853 47.5175 36.5199 47.64 36.4237 47.7361C36.3276 47.8323 36.2051 47.8977 36.0717 47.9243C35.9383 47.9508 35.8001 47.9372 35.6745 47.8852C35.5488 47.8331 35.4415 47.745 35.3659 47.6319C35.2904 47.5189 35.2501 47.386 35.2501 47.25C35.2501 47.0676 35.3225 46.8928 35.4514 46.7638C35.5804 46.6349 35.7552 46.5625 35.9376 46.5625Z" fill="#013170"/>
</g>
<defs>
<clipPath id="clip0_179_159">
<rect width="44" height="44" fill="white" transform="translate(27 28)"/>
</clipPath>
</defs>
</svg>
