<svg width="100" height="100" viewBox="0 0 100 100" fill="none" xmlns="http://www.w3.org/2000/svg">
<circle cx="50" cy="50" r="49.5" stroke="#9CA6B4"/>
<path d="M57.7437 60.1327L40.1022 60.1301C39.6156 60.1301 39.2202 60.5246 39.2202 61.0121C39.2202 61.4987 39.6147 61.8941 40.1022 61.8941L57.7437 61.8966C58.2302 61.8966 58.6256 61.5022 58.6256 61.0147C58.6256 60.528 58.2312 60.1327 57.7437 60.1327Z" fill="#022169"/>
<path d="M54.2133 63.6606H43.63C43.1425 63.6606 42.748 64.0551 42.748 64.5426C42.748 65.0301 43.1425 65.4246 43.63 65.4246H54.2133C54.7008 65.4246 55.0953 65.0301 55.0953 64.5426C55.0952 64.055 54.7008 63.6606 54.2133 63.6606Z" fill="#022169"/>
<path d="M49.1252 38.917C43.7758 38.917 39.4238 43.269 39.4238 48.6183C39.4238 53.9677 43.7758 58.3197 49.1252 58.3197C54.4745 58.3197 58.8265 53.9677 58.8265 48.6183C58.8265 43.269 54.4745 38.917 49.1252 38.917ZM41.2768 49.5003H44.7335C44.8312 51.9027 45.3273 54.2919 46.1886 55.9778C43.5288 54.9126 41.6085 52.449 41.2768 49.5003ZM44.7336 47.7365H41.2769C41.6086 44.7878 43.5289 42.3242 46.1887 41.259C45.3274 42.9449 44.8312 45.334 44.7336 47.7365ZM49.1252 56.5559C48.1147 56.5559 46.6936 53.8235 46.5147 49.5004H51.7357C51.5568 53.8235 50.1356 56.5559 49.1252 56.5559ZM46.5147 47.7365C46.6936 43.4133 48.1147 40.6809 49.1252 40.6809C50.1356 40.6809 51.5568 43.4133 51.7357 47.7365H46.5147ZM52.0617 55.9779C52.923 54.2919 53.4192 51.9028 53.5168 49.5004H56.9735C56.6418 52.449 54.7215 54.9126 52.0617 55.9779ZM53.5168 47.7365C53.4192 45.334 52.923 42.9449 52.0617 41.259C54.7215 42.3242 56.6419 44.7878 56.9735 47.7365H53.5168Z" fill="#022169"/>
<path d="M61.4722 33.6251H59.7083V31.8026C59.7083 29.8756 58.0777 28.314 56.1805 28.3334C55.9095 28.3362 55.6722 28.3738 55.3924 28.4446L36.5889 33.6442C34.7325 33.7447 33.25 35.272 33.25 37.1529V67.139C33.25 69.0846 34.8321 70.6668 36.7778 70.6668H61.4722C63.4178 70.6668 65 69.0847 65 67.139V37.1529C65 35.2073 63.4178 33.6251 61.4722 33.6251ZM55.8455 30.149C56.8747 29.8863 57.9443 30.72 57.9443 31.8026V33.6251H43.2759L55.8455 30.149ZM63.2361 67.139C63.2361 68.1113 62.4446 68.9028 61.4722 68.9028H36.7778C35.8055 68.9028 35.0139 68.1113 35.0139 67.139V37.1529C35.0139 36.1805 35.8055 35.389 36.7778 35.389H61.4722C62.4446 35.389 63.2361 36.1805 63.2361 37.1529V67.139Z" fill="#022169"/>
</svg>
