<svg width="36" height="36" viewBox="0 0 36 36" fill="none" xmlns="http://www.w3.org/2000/svg">
<path d="M18 36C27.9411 36 36 27.9411 36 18C36 8.05888 27.9411 0 18 0C8.05888 0 0 8.05888 0 18C0 27.9411 8.05888 36 18 36Z" fill="#4CAF50"/>
<path d="M17.9994 8.52631C16.2541 8.52697 14.5428 9.00976 13.0545 9.92141C11.5662 10.8331 10.3587 12.1381 9.56513 13.6926C8.77159 15.2471 8.4229 16.9906 8.55753 18.7308C8.69215 20.4709 9.30487 22.14 10.3281 23.5539L9.14386 27.0734L12.7889 25.9081C14.022 26.7215 15.4282 27.2353 16.8952 27.4084C18.3622 27.5815 19.8494 27.4091 21.238 26.9051C22.6265 26.401 23.878 25.5792 24.8923 24.5054C25.9067 23.4315 26.6559 22.1353 27.0801 20.7203C27.5042 19.3053 27.5916 17.8107 27.3353 16.3559C27.0789 14.9011 26.4859 13.5264 25.6036 12.3417C24.7213 11.1569 23.5742 10.1948 22.2539 9.53237C20.9335 8.86991 19.4766 8.52538 17.9994 8.52631ZM23.0346 21.9245L22.0257 22.9334C20.9646 23.9945 18.151 22.8268 15.657 20.3281C13.1631 17.8295 12.0452 15.0229 13.0541 13.9737L14.0631 12.9647C14.2584 12.7851 14.5141 12.6855 14.7795 12.6855C15.0449 12.6855 15.3006 12.7851 15.496 12.9647L16.9833 14.4474C17.1046 14.5653 17.1936 14.7123 17.2417 14.8745C17.2899 15.0367 17.2955 15.2085 17.2582 15.3734C17.2209 15.5384 17.1418 15.6911 17.0286 15.8167C16.9153 15.9424 16.7717 16.0368 16.6115 16.091C16.3751 16.1666 16.177 16.3303 16.0583 16.5483C15.9396 16.7662 15.9096 17.0215 15.9744 17.261C16.2396 18.3742 17.6725 19.755 18.736 20.0203C18.9742 20.0703 19.2225 20.0326 19.4353 19.9143C19.648 19.796 19.8109 19.6048 19.8941 19.376C19.9477 19.2135 20.0426 19.0676 20.1694 18.9527C20.2962 18.8377 20.4506 18.7576 20.6177 18.7201C20.7847 18.6827 20.9585 18.6891 21.1223 18.7389C21.2861 18.7887 21.4341 18.8801 21.552 19.0042L23.037 20.4916C23.2163 20.6872 23.3155 20.9431 23.3151 21.2085C23.3146 21.4739 23.2146 21.7294 23.0346 21.9245Z" fill="white"/>
</svg>
